<svg width="1600" height="900" viewBox="0 0 1600 900" fill="none" xmlns="http://www.w3.org/2000/svg">
  <defs>
    <linearGradient id="bg" x1="174" y1="118" x2="1422" y2="830" gradientUnits="userSpaceOnUse">
      <stop stop-color="#141A2B"/>
      <stop offset="0.54" stop-color="#111828"/>
      <stop offset="1" stop-color="#08111B"/>
    </linearGradient>
    <linearGradient id="arch" x1="470" y1="152" x2="1138" y2="742" gradientUnits="userSpaceOnUse">
      <stop stop-color="#FFD271"/>
      <stop offset="0.58" stop-color="#FF8F66"/>
      <stop offset="1" stop-color="#58D4C5"/>
    </linearGradient>
    <radialGradient id="mist" cx="0" cy="0" r="1" gradientUnits="userSpaceOnUse" gradientTransform="translate(804 462) rotate(90) scale(328 426)">
      <stop stop-color="#FFE2C6" stop-opacity="0.22"/>
      <stop offset="1" stop-color="#FF8F66" stop-opacity="0"/>
    </radialGradient>
  </defs>
  <rect width="1600" height="900" rx="48" fill="url(#bg)"/>
  <ellipse cx="804" cy="462" rx="430" ry="250" fill="url(#mist)"/>
  <path d="M486 690C486 436 620 236 804 236C988 236 1122 436 1122 690" stroke="url(#arch)" stroke-opacity="0.88" stroke-width="36" stroke-linecap="round"/>
  <path d="M570 690C570 494 664 344 804 344C944 344 1038 494 1038 690" stroke="rgba(237,243,248,0.16)" stroke-width="10" stroke-linecap="round"/>
  <circle cx="804" cy="304" r="18" fill="#FFD271" fill-opacity="0.94"/>
  <circle cx="486" cy="690" r="14" fill="#FF8F66" fill-opacity="0.9"/>
  <circle cx="1122" cy="690" r="14" fill="#58D4C5" fill-opacity="0.9"/>
  <rect x="248" y="532" width="176" height="120" rx="32" fill="rgba(255,143,102,0.08)" stroke="rgba(255,143,102,0.24)"/>
  <rect x="1176" y="532" width="176" height="120" rx="32" fill="rgba(88,212,197,0.08)" stroke="rgba(88,212,197,0.24)"/>
  <path d="M266 190H420" stroke="rgba(237,243,248,0.08)" stroke-width="2"/>
  <path d="M1180 190H1334" stroke="rgba(237,243,248,0.08)" stroke-width="2"/>
  <circle cx="804" cy="470" r="138" stroke="rgba(237,243,248,0.08)" stroke-width="2"/>
</svg>
