<svg width="1024" height="1024" viewBox="0 0 1024 1024" fill="none" xmlns="http://www.w3.org/2000/svg">
  <defs>
    <linearGradient id="bg" x1="146" y1="122" x2="886" y2="914" gradientUnits="userSpaceOnUse">
      <stop stop-color="#141A2B"/>
      <stop offset="1" stop-color="#08111B"/>
    </linearGradient>
    <linearGradient id="arch" x1="338" y1="184" x2="698" y2="822" gradientUnits="userSpaceOnUse">
      <stop stop-color="#FFD271"/>
      <stop offset="0.52" stop-color="#FF8F66"/>
      <stop offset="1" stop-color="#58D4C5"/>
    </linearGradient>
    <radialGradient id="glow" cx="0" cy="0" r="1" gradientUnits="userSpaceOnUse" gradientTransform="translate(512 530) rotate(90) scale(286 286)">
      <stop stop-color="#FFE6D1" stop-opacity="0.22"/>
      <stop offset="1" stop-color="#FF8F66" stop-opacity="0"/>
    </radialGradient>
  </defs>
  <rect width="1024" height="1024" rx="184" fill="url(#bg)"/>
  <rect x="84" y="84" width="856" height="856" rx="150" fill="#111A2B" stroke="rgba(237,243,248,0.08)"/>
  <circle cx="512" cy="530" r="288" fill="url(#glow)"/>
  <path d="M286 744C286 520 382 344 512 344C642 344 738 520 738 744" stroke="url(#arch)" stroke-opacity="0.86" stroke-width="30" stroke-linecap="round"/>
  <path d="M350 744C350 576 418 454 512 454C606 454 674 576 674 744" stroke="rgba(237,243,248,0.16)" stroke-width="8" stroke-linecap="round"/>
  <circle cx="512" cy="408" r="16" fill="#FFD271" fill-opacity="0.94"/>
  <circle cx="286" cy="744" r="12" fill="#FF8F66" fill-opacity="0.9"/>
  <circle cx="738" cy="744" r="12" fill="#58D4C5" fill-opacity="0.9"/>
  <circle cx="512" cy="532" r="170" stroke="rgba(237,243,248,0.08)" stroke-width="2"/>
</svg>
