<svg width="1600" height="900" viewBox="0 0 1600 900" fill="none" xmlns="http://www.w3.org/2000/svg">
  <defs>
    <linearGradient id="bg" x1="140" y1="92" x2="1450" y2="832" gradientUnits="userSpaceOnUse">
      <stop stop-color="#0E182A"/>
      <stop offset="1" stop-color="#08111B"/>
    </linearGradient>
    <linearGradient id="panelA" x1="426" y1="164" x2="844" y2="754" gradientUnits="userSpaceOnUse">
      <stop stop-color="#58D4C5" stop-opacity="0.5"/>
      <stop offset="1" stop-color="#58D4C5" stop-opacity="0.04"/>
    </linearGradient>
    <linearGradient id="panelB" x1="836" y1="126" x2="1262" y2="772" gradientUnits="userSpaceOnUse">
      <stop stop-color="#FF8F66" stop-opacity="0.48"/>
      <stop offset="1" stop-color="#FFD271" stop-opacity="0.06"/>
    </linearGradient>
    <radialGradient id="glow" cx="0" cy="0" r="1" gradientUnits="userSpaceOnUse" gradientTransform="translate(812 452) rotate(90) scale(316 460)">
      <stop stop-color="#EDF3F8" stop-opacity="0.16"/>
      <stop offset="1" stop-color="#EDF3F8" stop-opacity="0"/>
    </radialGradient>
  </defs>
  <rect width="1600" height="900" rx="48" fill="url(#bg)"/>
  <ellipse cx="812" cy="452" rx="446" ry="250" fill="url(#glow)"/>
  <path d="M376 204L772 164L1038 742L642 782Z" fill="url(#panelA)" stroke="rgba(88,212,197,0.3)" stroke-width="2"/>
  <path d="M914 128L1288 210L1086 786L712 704Z" fill="url(#panelB)" stroke="rgba(255,143,102,0.26)" stroke-width="2"/>
  <path d="M772 164L1038 742" stroke="rgba(237,243,248,0.14)" stroke-width="3"/>
  <path d="M914 128L1086 786" stroke="rgba(237,243,248,0.14)" stroke-width="3"/>
  <circle cx="694" cy="330" r="18" fill="#58D4C5" fill-opacity="0.88"/>
  <circle cx="1038" cy="560" r="18" fill="#FFD271" fill-opacity="0.9"/>
  <circle cx="1160" cy="284" r="16" fill="#FF8F66" fill-opacity="0.86"/>
  <path d="M214 196H416" stroke="rgba(237,243,248,0.08)" stroke-width="2"/>
  <path d="M1180 720H1382" stroke="rgba(237,243,248,0.08)" stroke-width="2"/>
</svg>
