<svg width="1600" height="900" viewBox="0 0 1600 900" fill="none" xmlns="http://www.w3.org/2000/svg">
  <defs>
    <linearGradient id="bg" x1="160" y1="94" x2="1438" y2="826" gradientUnits="userSpaceOnUse">
      <stop stop-color="#0D182A"/>
      <stop offset="1" stop-color="#07101A"/>
    </linearGradient>
    <radialGradient id="field" cx="0" cy="0" r="1" gradientUnits="userSpaceOnUse" gradientTransform="translate(804 446) rotate(90) scale(334 456)">
      <stop stop-color="#D4FFF8" stop-opacity="0.22"/>
      <stop offset="0.48" stop-color="#58D4C5" stop-opacity="0.1"/>
      <stop offset="1" stop-color="#58D4C5" stop-opacity="0"/>
    </radialGradient>
    <linearGradient id="node" x1="430" y1="284" x2="1180" y2="670" gradientUnits="userSpaceOnUse">
      <stop stop-color="#58D4C5"/>
      <stop offset="1" stop-color="#FFD271"/>
    </linearGradient>
  </defs>
  <rect width="1600" height="900" rx="48" fill="url(#bg)"/>
  <ellipse cx="804" cy="446" rx="470" ry="250" fill="url(#field)"/>
  <circle cx="804" cy="446" r="198" stroke="rgba(88,212,197,0.24)" stroke-width="2"/>
  <circle cx="804" cy="446" r="274" stroke="rgba(237,243,248,0.1)" stroke-width="2"/>
  <circle cx="804" cy="446" r="352" stroke="rgba(255,143,102,0.12)" stroke-width="2"/>
  <path d="M444 620L626 500L804 446L1010 376L1186 294" stroke="url(#node)" stroke-opacity="0.82" stroke-width="10" stroke-linecap="round"/>
  <circle cx="444" cy="620" r="14" fill="#58D4C5" fill-opacity="0.92"/>
  <circle cx="626" cy="500" r="12" fill="#78E5D6" fill-opacity="0.9"/>
  <circle cx="804" cy="446" r="16" fill="#EDF3F8" fill-opacity="0.86"/>
  <circle cx="1010" cy="376" r="14" fill="#FFD271" fill-opacity="0.9"/>
  <circle cx="1186" cy="294" r="18" fill="#FF8F66" fill-opacity="0.88"/>
  <rect x="196" y="224" width="188" height="118" rx="28" fill="rgba(255,255,255,0.03)" stroke="rgba(255,255,255,0.08)"/>
  <rect x="1216" y="568" width="188" height="118" rx="28" fill="rgba(255,255,255,0.03)" stroke="rgba(255,255,255,0.08)"/>
</svg>
